HIERARCHY
ROOT SpineBase
{
  OFFSET 0.000000 0.000000 0.000000
  CHANNELS 6 Xposition Yposition Zposition Zrotation Xrotation Yrotation
  JOINT SpineMid
  {
    OFFSET 0.000000 29.185471 0.000000
    CHANNELS 3 Zrotation Xrotation Yrotation
    JOINT SpineShoulder
    {
      OFFSET 0.053891 21.749355 -0.699208
      CHANNELS 3 Zrotation Xrotation Yrotation
      JOINT Neck
      {
        OFFSET 0.056285 7.213125 -0.530568
        CHANNELS 3 Zrotation Xrotation Yrotation
        JOINT Head
        {
          OFFSET 4.285673 13.761902 0.410130
          CHANNELS 3 Zrotation Xrotation Yrotation
          End Site
          {
            OFFSET 0 0 0
          }
        }
      }
      JOINT ShoulderLeft
      {
        OFFSET -10.760648 -1.919022 -12.025136
        CHANNELS 3 Zrotation Xrotation Yrotation
        JOINT ElbowLeft
        {
          OFFSET -4.763484 -24.342614 -5.305908
          CHANNELS 3 Zrotation Xrotation Yrotation
          JOINT WristLeft
          {
            OFFSET 3.952746 -23.017325 -3.025000
            CHANNELS 3 Zrotation Xrotation Yrotation
            JOINT HandLeft
            {
              OFFSET 0.937555 -4.053675 0.288971
              CHANNELS 3 Zrotation Xrotation Yrotation
              JOINT HandTipLeft
              {
                OFFSET 0.304616 -6.267190 0.478399
                CHANNELS 3 Zrotation Xrotation Yrotation
                End Site
                {
                  OFFSET 0 0 0
                }
              }
              JOINT ThumbLeft
              {
                OFFSET 2.916637 1.649008 0.284328
                CHANNELS 3 Zrotation Xrotation Yrotation
                End Site
                {
                  OFFSET 0 0 0
                }
              }
            }
          }
        }
      }
      JOINT ShoulderRight
      {
        OFFSET 12.496386 -4.172482 10.270262
        CHANNELS 3 Zrotation Xrotation Yrotation
        JOINT ElbowRight
        {
          OFFSET 0.688336 -27.729267 5.739720
          CHANNELS 3 Zrotation Xrotation Yrotation
          JOINT WristRight
          {
            OFFSET -0.196825 -22.637628 -4.789140
            CHANNELS 3 Zrotation Xrotation Yrotation
            JOINT HandRight
            {
              OFFSET -0.663404 -3.104681 -0.742928
              CHANNELS 3 Zrotation Xrotation Yrotation
              JOINT HandTipRight
              {
                OFFSET -0.662711 -3.764484 -0.271759
                CHANNELS 3 Zrotation Xrotation Yrotation
                End Site
                {
                  OFFSET 0 0 0
                }
              }
              JOINT ThumbRight
              {
                OFFSET -0.426672 1.964709 -3.336930
                CHANNELS 3 Zrotation Xrotation Yrotation
                End Site
                {
                  OFFSET 0 0 0
                }
              }
            }
          }
        }
      }
    }
  }
  JOINT HipLeft
  {
    OFFSET -4.854756 1.941772 -7.449757
    CHANNELS 3 Zrotation Xrotation Yrotation
    JOINT KneeLeft
    {
      OFFSET -7.918895 -26.347008 -0.928285
      CHANNELS 3 Zrotation Xrotation Yrotation
      JOINT AnkleLeft
      {
        OFFSET -6.789933 -33.458747 6.187923
        CHANNELS 3 Zrotation Xrotation Yrotation
        JOINT FootLeft
        {
          OFFSET 3.907554 -7.532456 -1.022481
          CHANNELS 3 Zrotation Xrotation Yrotation
          End Site
          {
            OFFSET 0 0 0
          }
        }
      }
    }
  }
  JOINT HipRight
  {
    OFFSET 5.485180 0.102200 0.627204
    CHANNELS 3 Zrotation Xrotation Yrotation
    JOINT KneeRight
    {
      OFFSET -4.014035 -27.721694 5.843941
      CHANNELS 3 Zrotation Xrotation Yrotation
      JOINT AnkleRight
      {
        OFFSET -10.729377 -31.746080 1.806643
        CHANNELS 3 Zrotation Xrotation Yrotation
        JOINT FootRight
        {
          OFFSET 0.838920 -7.939451 -5.789263
          CHANNELS 3 Zrotation Xrotation Yrotation
          End Site
          {
            OFFSET 0 0 0
          }
        }
      }
    }
  }
}
MOTION
Frames: 10
Frame Time: 0.033333
-28.410706 71.083089 322.754133 -0.000000 0.000000 -37.994903 -0.000000 0.000000 37.994903 -0.000000 0.000000 0.000000 -0.000000 0.000000 0.000000 0.000000 0.000000 0.000000 -0.000000 0.000000 0.000000 -0.000000 0.000000 0.000000 -0.000000 0.000000 0.000000 -0.000000 0.000000 0.000000 0.000000 0.000000 0.000000 0.000000 0.000000 0.000000 -0.000000 0.000000 0.000000 -0.000000 0.000000 0.000000 -0.000000 0.000000 0.000000 -0.000000 0.000000 0.000000 0.000000 0.000000 0.000000 0.000000 0.000000 0.000000 -0.000000 0.000000 37.994903 -0.000000 0.000000 0.000000 -0.000000 0.000000 0.000000 0.000000 0.000000 0.000000 -0.000000 0.000000 37.994903 -0.000000 0.000000 0.000000 -0.000000 0.000000 0.000000 0.000000 0.000000 0.000000
-28.404826 71.109109 322.681973 -0.019897 0.175210 -37.951209 0.123442 -0.125923 37.951376 -0.000000 0.000000 0.000000 -0.000000 0.000000 0.000000 0.000000 0.000000 0.000000 -0.000000 0.000000 0.000000 -0.000000 0.000000 0.000000 -0.000000 0.000000 0.000000 2.342440 1.542395 0.222277 0.000000 0.000000 0.000000 0.000000 0.000000 0.000000 -0.000000 0.000000 0.000000 -0.000000 0.000000 0.000000 0.952515 -5.195277 0.937990 -1.222742 4.120756 -0.609796 0.000000 0.000000 0.000000 0.000000 0.000000 0.000000 0.123442 -0.125923 37.951376 -0.000000 0.000000 0.000000 -0.920961 0.332005 0.301054 0.000000 0.000000 0.000000 0.123442 -0.125923 37.951376 -0.000000 0.000000 0.000000 -0.000000 0.000000 0.000000 0.000000 0.000000 0.000000
-28.399206 71.132015 322.620940 -0.038512 0.321118 -37.920548 0.227731 -0.229649 37.921112 -0.000000 0.000000 0.000000 -0.000000 0.000000 0.000000 0.000000 0.000000 0.000000 -0.000000 0.000000 0.000000 -0.000000 0.000000 0.000000 -0.000000 0.000000 0.000000 4.228327 2.649144 0.353871 0.000000 0.000000 0.000000 0.000000 0.000000 0.000000 -0.000000 0.000000 0.000000 -0.000000 0.000000 0.000000 1.606102 -9.186511 1.750632 -1.921511 7.136112 -1.022410 0.000000 0.000000 0.000000 0.000000 0.000000 0.000000 0.227731 -0.229649 37.921112 -0.000000 0.000000 0.000000 -1.551398 0.553405 0.508420 0.000000 0.000000 0.000000 0.227731 -0.229649 37.921112 -0.000000 0.000000 0.000000 0.211886 -1.129340 -0.273662 0.000000 0.000000 0.000000
-28.393848 71.151806 322.571034 -0.055841 0.437655 -37.902620 0.312926 -0.311028 37.903683 -0.000000 0.000000 0.000000 -0.000000 0.000000 0.000000 0.000000 0.000000 0.000000 -0.000000 0.000000 0.000000 -0.000000 0.000000 0.000000 -0.000000 0.000000 0.000000 5.655727 3.314049 0.429369 0.000000 0.000000 0.000000 0.000000 0.000000 0.000000 -0.000000 0.000000 0.000000 -0.000000 0.000000 0.000000 1.896612 -11.909015 2.364918 -2.103507 8.954118 -1.320014 0.000000 0.000000 0.000000 0.000000 0.000000 0.000000 0.312926 -0.311028 37.903683 -0.000000 0.000000 0.000000 -1.891556 0.667862 0.619087 0.000000 0.000000 0.000000 0.312926 -0.311028 37.903683 -0.000000 0.000000 0.000000 0.267617 -1.439947 -0.347030 0.000000 0.000000 0.000000
-28.388751 71.168483 322.532253 -0.071878 0.524768 -37.897175 0.379063 -0.369948 37.898728 -0.000000 0.000000 0.000000 -0.000000 0.000000 0.000000 0.000000 0.000000 0.000000 -0.000000 0.000000 0.000000 -0.000000 0.000000 0.000000 -0.000000 0.000000 0.000000 6.628095 3.538959 0.473369 0.000000 0.000000 0.000000 0.000000 0.000000 0.000000 -0.000000 0.000000 0.000000 -0.000000 0.000000 0.000000 1.777749 -13.353895 2.734280 -1.775261 9.547446 -1.550768 0.000000 0.000000 0.000000 0.000000 0.000000 0.000000 1.128780 -0.731984 38.117470 -0.366406 0.747560 -0.209142 -1.941674 0.677382 0.631517 0.000000 0.000000 0.000000 0.379063 -0.369948 37.898728 -0.000000 0.000000 0.000000 0.289819 -1.575253 -0.377487 0.000000 0.000000 0.000000
-28.383915 71.182045 322.504599 -0.086618 0.582419 -37.904004 0.426157 -0.406335 37.905955 -0.000000 0.000000 0.000000 -0.000000 0.000000 0.000000 0.000000 0.000000 0.000000 -0.000000 0.000000 0.000000 -0.000000 0.000000 0.000000 -0.000000 0.000000 0.000000 7.151448 3.329256 0.499958 0.000000 0.000000 0.000000 0.000000 0.000000 0.000000 -0.000000 0.000000 0.000000 -0.000000 0.000000 0.000000 1.223938 -13.523987 2.842077 -0.941639 8.909636 -1.721672 0.000000 0.000000 0.000000 0.000000 0.000000 0.000000 1.280633 -0.819498 38.156387 -0.416708 0.852710 -0.238190 -1.701682 0.582173 0.545489 0.000000 0.000000 0.000000 0.426157 -0.406335 37.905955 -0.000000 0.000000 0.000000 0.278542 -1.533829 -0.364926 0.000000 0.000000 0.000000
-28.368185 71.171622 322.515603 -0.081621 0.570082 -37.993118 0.415255 -0.399025 37.994970 -0.000000 0.000000 0.000000 -0.000000 0.000000 0.000000 0.000000 0.000000 0.000000 -0.000000 0.000000 0.000000 -0.000000 0.000000 0.000000 -0.730912 0.613982 0.093993 8.702104 2.094475 0.551368 0.000000 0.000000 0.000000 0.000000 0.000000 0.000000 -0.026140 0.905255 0.017296 0.025870 -0.905263 -0.016885 0.546129 -10.366620 2.189543 0.411793 5.574566 -1.412871 0.000000 0.000000 0.000000 0.000000 0.000000 0.000000 1.295722 -0.871669 38.265754 -0.398659 0.916296 -0.257832 -0.979633 0.575669 0.438184 0.000000 0.000000 0.000000 0.415255 -0.399025 37.994970 -0.000000 0.000000 0.000000 -0.846777 0.091250 0.627897 0.000000 0.000000 0.000000
-28.357909 71.178683 322.512127 -0.086922 0.575077 -38.042655 0.422853 -0.399333 38.044565 -0.000000 0.000000 0.000000 -0.000000 0.000000 0.000000 0.000000 0.000000 0.000000 -0.000000 0.000000 0.000000 -0.000000 0.000000 0.000000 -0.830688 1.116722 0.207660 7.562781 -0.007917 0.443151 0.000000 0.000000 0.000000 0.000000 0.000000 0.000000 -0.006211 0.857134 0.020069 0.005911 -0.857136 -0.019979 -0.211486 -8.447261 1.875505 0.789565 2.536529 -0.950194 0.000000 0.000000 0.000000 0.000000 0.000000 0.000000 1.358622 -0.953935 38.346702 -0.389909 1.015433 -0.287631 -0.000000 0.000000 0.000000 0.000000 0.000000 0.000000 -0.175287 -0.926449 37.876786 0.795733 0.048803 0.160520 -2.202850 2.134329 1.851503 0.000000 0.000000 0.000000
-28.356217 71.192656 322.501551 -0.100174 0.571798 -38.088755 0.431582 -0.388236 38.090718 -0.000000 0.000000 0.000000 -0.000000 0.000000 0.000000 0.000000 0.000000 0.000000 -0.000000 0.000000 0.000000 -0.000000 0.000000 0.000000 -1.754330 0.961720 0.112558 6.847870 -1.113005 0.390587 0.000000 0.000000 0.000000 0.000000 0.000000 0.000000 -0.000000 0.000000 0.000000 -0.000000 0.000000 0.000000 -2.464514 -4.773767 1.515794 4.757477 -0.853120 -0.993833 0.000000 0.000000 0.000000 0.000000 0.000000 0.000000 1.403553 -0.985568 38.410356 -0.390614 1.071833 -0.304332 -0.000000 0.000000 0.000000 0.000000 0.000000 0.000000 0.431582 -0.388236 38.090718 -0.000000 0.000000 0.000000 -1.960550 2.099791 1.668164 0.000000 0.000000 0.000000
-28.364490 71.218024 322.487358 -0.134221 0.566015 -38.123977 0.455034 -0.362402 38.126079 -0.000000 0.000000 0.000000 -0.000000 0.000000 0.000000 0.000000 0.000000 0.000000 -0.000000 0.000000 0.000000 -0.000000 0.000000 0.000000 -2.812183 0.961054 0.045650 7.229469 -2.851876 0.392803 0.000000 0.000000 0.000000 0.000000 0.000000 0.000000 -0.000000 0.000000 0.000000 -0.000000 0.000000 0.000000 -6.514712 -2.919288 2.005979 10.498601 -3.543300 -1.521041 0.000000 0.000000 0.000000 0.000000 0.000000 0.000000 1.511343 -0.915984 38.448047 -0.483183 1.090255 -0.305587 2.607107 -1.264655 -0.971229 0.000000 0.000000 0.000000 0.455034 -0.362402 38.126079 -0.000000 0.000000 0.000000 -0.665841 0.895890 0.582425 0.000000 0.000000 0.000000
